<svg xmlns="http://www.w3.org/2000/svg" width="160" height="70">
  <g fill="#FFF">
    <path d="M1.7 39.4c0-.2.2-.3.3-.3h8c3.6 0 6.2 1.5 7.3 4.7.4 1.3.6 2.4.6 5.5s-.2 4.3-.6 5.6c-1 3.2-3.7 4.7-7.3 4.7H2c-.1 0-.3-.1-.3-.3v-20zm5.5 15.5h1.6c1.9 0 3-.5 3.4-2 .2-.6.3-1.3.3-3.6s-.1-3-.3-3.6c-.5-1.4-1.5-2-3.4-2H7.2c-.1 0-.2.1-.2.3v10.7l.2.2zM19.8 59.6c-.2 0-.3-.1-.3-.3V45.2c0-.2.1-.3.3-.3h4.5c.1 0 .3.1.3.3v1.3c.7-1.3 2-2 3.8-2 .8 0 1.5.2 2 .6.2.1.2.2.1.4l-1.7 4.3c0 .1-.2 0-.4 0-.7-.5-1.4-.7-2.1-.6-1.2.1-1.7 1-1.7 2.6v7.5c0 .2-.2.3-.3.3h-4.5zM30.6 55.6c-.3-.8-.5-1.8-.5-3.3 0-1.6.2-2.6.4-3.5 1-2.7 3.3-4.3 6.6-4.3 3.5 0 5.8 1.6 6.6 4.3.3.9.5 2 .5 4.6 0 .1 0 .3-.3.3h-8.7c-.1 0-.2 0-.2.2l.1.6c.4 1 1.4 1.6 2.9 1.6a5 5 0 0 0 3.2-1.2c.2-.2.3-.2.5 0l2.1 2.2c.2.1.2.3 0 .4a9.1 9.1 0 0 1-6.4 2.4c-3.6 0-6-1.6-6.8-4.3zm8.6-5l.1-.2v-.9c-.3-.8-1-1.3-2.1-1.3-1 0-1.8.5-2 1.3l-.2 1 .2.1h4zM54 59.6c-.1 0-.2-.1-.2-.3v-.9c-.9 1-2.1 1.5-4 1.5-2.5 0-4.8-1.3-4.8-4.5 0-3.3 2.6-4.8 6.3-4.8h2.3s.2 0 .2-.2V50c0-1-.6-1.5-2.9-1.5-1.3 0-2.4.3-3.1.8-.2.1-.3.1-.4 0l-1.6-2.8V46c1.4-1 3.4-1.5 5.8-1.5 5.1 0 7 1.8 7 5.5v9.3c0 .2-.2.3-.4.3h-4.1zm-.2-4.8v-1l-.2-.1h-1.8c-1.4 0-2 .5-2 1.4 0 .8.5 1.2 1.7 1.2 1.5 0 2.3-.5 2.3-1.5zM84.5 55.7c-.3-1.1-.5-2.2-.5-3.4 0-1.4.2-2.4.5-3.5.9-2.8 3.5-4.3 6.7-4.3s5.7 1.5 6.7 4.3c.3 1 .4 2.1.4 3.5 0 1.2-.1 2.3-.4 3.4-1 2.8-3.5 4.2-6.7 4.2s-5.8-1.4-6.7-4.2zm8.5-1.2c.1-.5.2-1 .2-2.2 0-1.3 0-1.8-.2-2.4-.3-.8-1-1.2-1.8-1.2-.9 0-1.5.4-1.8 1.2-.2.6-.2 1.1-.2 2.4a8 8 0 0 0 .2 2.2c.3.9 1 1.3 1.8 1.3.9 0 1.5-.4 1.8-1.3zM108.6 59.6c-.1 0-.3-.1-.3-.3v-8.4c0-1.3-.5-2.1-1.7-2.1s-1.9.8-1.9 2.1v8.4c0 .2 0 .3-.3.3H100c-.2 0-.3-.1-.3-.3V45.2c0-.2.1-.3.3-.3h4.4c.2 0 .3.1.3.3v1c.7-1 2-1.7 3.8-1.7 3.4 0 4.9 2.3 4.9 5.5v9.3c0 .2-.1.3-.3.3h-4.5zM124.7 59.6c-.2 0-.3-.1-.4-.3l-2.9-5.7-1 1.5v4.2c0 .2-.2.3-.4.3h-4.4c-.2 0-.3-.1-.3-.3v-20s.1-.2.3-.2h4.4c.2 0 .3.1.3.3v10.3l3.5-4.5c.1-.2.3-.3.5-.3h4.6c.2 0 .3.2.2.3l-4.3 5 4.9 9c0 .2 0 .4-.2.4h-4.8z"/>
    <path d="M129.6 55.6c-.4-.8-.5-1.8-.5-3.3 0-1.6.2-2.6.4-3.5 1-2.7 3.3-4.3 6.6-4.3 3.5 0 5.8 1.6 6.6 4.3.3.9.5 2 .5 4.6 0 .1-.1.3-.3.3h-8.7c-.2 0-.2 0-.2.2l.1.6c.3 1 1.4 1.6 2.8 1.6a5 5 0 0 0 3.3-1.2c.2-.2.3-.2.5 0l2.1 2.2c.2.1.1.3 0 .4a9.1 9.1 0 0 1-6.4 2.4c-3.6 0-6-1.6-6.8-4.3zm8.5-5c.2 0 .2 0 .2-.2l-.1-.9c-.3-.8-1-1.3-2-1.3s-1.8.5-2.1 1.3l-.1 1 .2.1h4zM145.4 65c-.2 0-.3-.1-.3-.3v-3.6c0-.1.1-.3.3-.3h.8c1 0 1.5-.3 1.8-1.2l.3-1-5.5-13.4c0-.2 0-.3.2-.3h4.7c.2 0 .3.1.4.3l2.5 7.4 2.4-7.4c0-.2.2-.3.4-.3h4.6c.2 0 .3.1.2.3l-6.3 16c-1.2 3-2.5 3.8-5.4 3.8h-1.1z"/>
  </g>
  <g fill="#D4E157">
    <path d="M85.4 20.2a5.8 5.8 0 0 0-5.6 5.7c-.1 1.9-1.3 4-3.5 2.9-5-2.7-9.5 3-10 3.3-.8.4-1.2-.5-1.5-.8-.6-1-2.2-2.2-4-1-2.2 1.4-2 2-1.6 2.2.4.2-.7.8-.7 1.2.1.7 0 2.6 1.8 2.1 1.1-.3 1.8.6 1.8 1.4 0 .5-.5 1.4-2.4 2-1.7.7-3 .9-4.8 2-.6.5-1.3.3-1.7.5-.8.3-1.6 1.4-1.2 1.9.1.2 1.4-1.2 2.1-.9.3.1.2.5-.1.8-.3.3-.3.5-.2.7 0 .1 1-.7 1.2-1.1.1-.3.2-.3.7-.4 2.6 0 5.6-.2 7-1.7.5-.5 1.2-2.3 1.7-2.4.5-.2 1.1.4 1.2 3.9 0 1 .9 1.3.9 2.8-.4.3-.8.6-1 1v-1.1c0-.2-.1-.3-.3-.3h-4.5c-.2 0-.3.1-.3.3v14c0 .3.1.4.3.4h4.5c.2 0 .3-.1.3-.3v-8.4c0-1.3.6-2.1 1.8-2.1 1.2 0 1.8.8 1.8 2.1v8.4c0 .2 0 .3.3.3h4.4c.2 0 .3-.1.3-.3v-8.4c0-1.3.7-2.1 1.8-2.1 1.2 0 1.8.8 1.8 2.1v8.4c0 .2.1.3.3.3h4.5c.2 0 .3-.1.3-.3V50c0-.6 0-1.1-.2-1.7l-.1-.5-.3-.6-.2-1.4-.5-3.5c0-.5-.2-.8-1-.9-.4-.1-3.8-2.2-2.3-4.4 1.4-2 1.1-4 .6-5.4-.3-.7.7-.9 1.9-2.5.7-1 .9-2 1-3.2 0-2.1 1.5-3.8 3.7-3.8 3 0 3.9 2.7 3.8 3.8 0 1-.3 1.3-1 1.4-.6.2-1.3-.6-1.3-1.4a.7.7 0 0 0-1.5 0c0 1.5 1.3 2.9 2.9 2.9 1.3 0 2.8-.8 2.8-2.9 0-2.8-2.2-5.7-5.7-5.7zm-17.1 21c-1.8-2.7 1-3.4 1.3-2.5.2.8-.1 3 .6 5.7v.2a6.3 6.3 0 0 0-1.6 0c.3-2 .2-2.6-.3-3.4zm11.9 3.2v.6a6 6 0 0 0-2.5-.5c-2 0-3.5.8-4.5 1.8l-.3-.8c-.4-1.2.1-3.5.2-4.3 0-.8 0-1.4-.5-1.8-.6-.3 1.2-2.7 1.5-3 .2-.2.7-.2.6 1-.2 1.6-1 3 .8 4s4.7 1.4 4.7 3z"/>
    <circle cx="56.1" cy="29.8" r="2.4"/>
    <circle cx="52.4" cy="23.2" r="3.8"/>
    <circle cx="51" cy="11.6" r="6.6"/>
  </g>
</svg>
