<?xml version="1.0" encoding="UTF-8"?>
<svg width="408px" height="63px" viewBox="0 0 408 63" version="1.1" xmlns="http://www.w3.org/2000/svg" xmlns:xlink="http://www.w3.org/1999/xlink">
    <title>Group</title>
    <defs>
        <path d="M18.253,0 C26.93,0 34,7.519 34,17.371 C34,27.288 26.93,34.871 18.253,34.871 C14.461,34.871 11.055,33.38 8.548,30.917 L8.548,30.917 L8.548,49 L0,49 L0,0.778 L8.163,0.778 L8.163,4.278 C10.734,1.621 14.269,0 18.253,0 Z M17.032,7.973 C12.34,7.973 8.548,12.186 8.548,17.371 C8.548,22.62 12.34,26.899 17.032,26.899 C21.724,26.899 25.516,22.815 25.516,17.371 C25.516,11.991 21.724,7.973 17.032,7.973 Z" id="path-1"></path>
        <path d="M8.199,4.097 C10.932,0.746 14.965,-0.479 19,0.166 L19,0.166 L19,8.415 C15.551,8.027 12.688,8.415 10.736,10.477 C8.914,12.345 8.589,15.052 8.589,17.695 L8.589,17.695 L8.589,34 L0,34 L0,0.81 L8.199,0.81 L8.199,4.097 Z" id="path-3"></path>
        <path d="M16.967,0 C26.335,0 34,7.584 34,17.564 C34,27.546 26.335,35 16.967,35 C7.599,35 0,27.546 0,17.564 C0,7.584 7.599,0 16.967,0 Z M16.967,7.843 C12.381,7.843 8.647,11.862 8.647,17.629 C8.647,23.268 12.381,27.157 16.967,27.157 C21.553,27.157 25.287,23.268 25.287,17.629 C25.287,11.862 21.553,7.843 16.967,7.843 Z" id="path-5"></path>
        <path d="M14,11.614 L14,49.12 C14,57.88 8.585,60.93 0,59.761 L0,59.761 L0,52.169 C3.5,52.494 5.217,51.521 5.217,48.146 L5.217,48.146 L5.217,11.614 L14,11.614 Z M14,0 L14,7.981 L5.217,7.981 L5.217,0 L14,0 Z" id="path-7"></path>
        <path d="M17.1,0 C26.946,0 35.107,7.649 33.877,20.871 L33.877,20.871 L8.68,20.871 C9.781,24.953 13.02,27.482 17.035,27.482 C19.886,27.482 22.671,26.25 24.096,23.592 L24.096,23.592 L33.229,23.592 C31.286,30.397 25.392,35 17.1,35 C7.708,35 0,27.222 0,17.564 C0,7.908 7.708,0 17.1,0 Z M17.035,7.519 C13.149,7.519 10.039,9.982 8.809,13.87 L8.809,13.87 L25.392,13.87 C24.355,9.982 21.117,7.519 17.035,7.519 Z" id="path-9"></path>
        <path d="M17.045,0 C24.99,0 31.014,4.538 32.936,12.055 L32.936,12.055 L23.901,12.055 C22.747,9.788 20.12,7.843 17.045,7.843 C12.367,7.843 8.587,12.25 8.587,17.629 C8.587,22.88 12.367,27.222 17.045,27.222 C20.184,27.222 22.876,25.277 23.965,22.945 L23.965,22.945 L33,22.945 C31.077,30.527 25.055,35 17.045,35 C7.112,35 0,27.222 0,17.564 C0,7.908 7.112,0 17.045,0 Z" id="path-11"></path>
        <path d="M8.571,0 L8.571,8.506 L14.61,8.506 L14.61,16.104 L8.571,16.104 L8.571,27.921 C8.571,32.597 10.714,34.349 15,34.09 L15,34.09 L15,41.882 C5.195,42.921 0,37.012 0,27.856 L0,27.856 L0,0 L8.571,0 Z" id="path-13"></path>
        <path d="M16.934,0 C21.922,0 26.254,2.782 28.617,6.146 L28.617,6.146 L28.617,0.841 L34,0.841 L34,34.159 L28.617,34.159 L28.617,28.789 C26.254,32.218 21.922,35 16.934,35 C7.22,35 0,27.172 0,17.532 C0,7.893 7.22,0 16.934,0 Z M16.934,5.24 C10.568,5.24 5.579,10.804 5.579,17.597 C5.579,24.261 10.568,29.76 16.934,29.76 C23.17,29.76 28.421,24.261 28.421,17.597 C28.421,10.804 23.17,5.24 16.934,5.24 Z" id="path-15"></path>
        <path d="M16.967,0 C25.68,0 34.064,7.13 34,18.991 L34,18.991 L5.634,18.991 C6.354,25.926 11.726,30.01 17.294,30.01 C22.076,30.01 25.483,27.741 27.317,23.852 L27.317,23.852 L33.213,23.852 C30.855,30.981 25.09,35 17.294,35 C7.599,35 0,27.352 0,17.564 C0,7.908 7.599,0 16.967,0 Z M16.967,4.991 C12.315,4.991 7.403,8.361 5.961,14.065 L5.961,14.065 L27.842,14.065 C26.466,8.62 21.879,4.991 16.967,4.991 Z" id="path-17"></path>
        <path d="M16.578,0 C23.967,0 29.751,4.408 32,11.149 L32,11.149 L26.153,11.149 C24.289,7.519 20.883,5.056 16.578,5.056 C10.473,5.056 5.462,10.694 5.462,17.564 C5.462,24.435 10.473,29.945 16.578,29.945 C20.948,29.945 24.353,27.482 26.153,23.852 L26.153,23.852 L32,23.852 C29.815,30.592 23.967,35 16.578,35 C7.453,35 0,27.222 0,17.564 C0,7.908 7.453,0 16.578,0 Z" id="path-19"></path>
        <path d="M15.107,0 C23.312,0 28,5.796 28,14.037 L28,14.037 L28,34 L22.53,34 L22.53,13.845 C22.53,8.758 19.665,5.023 14.325,5.023 C9.246,5.023 5.535,8.758 5.535,13.716 L5.535,13.716 L5.535,34 L0,34 L0,0.837 L5.339,0.837 L5.339,4.444 C7.618,1.675 11.069,0 15.107,0 Z" id="path-21"></path>
        <path d="M15.107,0 C23.312,0 28,5.796 28,14.037 L28,14.037 L28,34 L22.531,34 L22.531,13.845 C22.531,8.758 19.665,5.023 14.325,5.023 C9.246,5.023 5.535,8.758 5.535,13.716 L5.535,13.716 L5.535,34 L0,34 L0,0.837 L5.339,0.837 L5.339,4.444 C7.618,1.675 11.069,0 15.107,0 Z" id="path-23"></path>
        <path d="M8.499,2.646 C10.87,0.508 14.033,-0.335 17.986,0.119 L17.986,0.119 L17.986,5.109 C15.417,4.914 13.572,5.367 12.254,6.598 C10.541,8.154 10.146,11.198 10.146,13.466 L10.146,13.466 L10.146,14.762 L28,14.762 L28,48 L22.466,48 L22.466,20.01 L10.146,20.01 L10.146,48 L4.612,48 L4.612,20.01 L0,20.01 L0,14.762 L4.612,14.762 L4.612,13.466 C4.612,8.606 5.93,4.914 8.499,2.646 Z" id="path-25"></path>
    </defs>
    <g id="Page-1" stroke="none" stroke-width="1" fill="none" fill-rule="evenodd">
        <g id="no_icon_blue-(1)" transform="translate(-45.000000, -72.000000)">
            <g id="Group" transform="translate(45.000000, 72.000000)">
                <g id="Group-3" transform="translate(0.000000, 14.000000)">
                    <mask id="mask-2" fill="white">
                        <use xlink:href="#path-1"></use>
                    </mask>
                    <g id="Clip-2"></g>
                    <polygon id="Fill-1" fill="#1665C0" mask="url(#mask-2)" points="0 49.1 34.08 49.1 34.08 -0.1 0 -0.1"></polygon>
                </g>
                <g id="Group-6" transform="translate(39.000000, 14.000000)">
                    <mask id="mask-4" fill="white">
                        <use xlink:href="#path-3"></use>
                    </mask>
                    <g id="Clip-5"></g>
                    <polygon id="Fill-4" fill="#1665C0" mask="url(#mask-4)" points="0 34.1 19.08 34.1 19.08 -0.1 0 -0.1"></polygon>
                </g>
                <g id="Group-9" transform="translate(58.000000, 14.000000)">
                    <mask id="mask-6" fill="white">
                        <use xlink:href="#path-5"></use>
                    </mask>
                    <g id="Clip-8"></g>
                    <polygon id="Fill-7" fill="#1665C0" mask="url(#mask-6)" points="-0.04 35.06 34.04 35.06 34.04 -0.1 -0.04 -0.1"></polygon>
                </g>
                <g id="Group-12" transform="translate(90.000000, 3.000000)">
                    <mask id="mask-8" fill="white">
                        <use xlink:href="#path-7"></use>
                    </mask>
                    <g id="Clip-11"></g>
                    <polygon id="Fill-10" fill="#1665C0" mask="url(#mask-8)" points="0 60.1 14.04 60.1 14.04 -0.02 0 -0.02"></polygon>
                </g>
                <g id="Group-15" transform="translate(108.000000, 14.000000)">
                    <mask id="mask-10" fill="white">
                        <use xlink:href="#path-9"></use>
                    </mask>
                    <g id="Clip-14"></g>
                    <polygon id="Fill-13" fill="#1665C0" mask="url(#mask-10)" points="0 35.06 34.08 35.06 34.08 -0.1 0 -0.1"></polygon>
                </g>
                <g id="Group-18" transform="translate(144.000000, 14.000000)">
                    <mask id="mask-12" fill="white">
                        <use xlink:href="#path-11"></use>
                    </mask>
                    <g id="Clip-17"></g>
                    <polygon id="Fill-16" fill="#1665C0" mask="url(#mask-12)" points="0 35.06 33 35.06 33 -0.1 0 -0.1"></polygon>
                </g>
                <g id="Group-21" transform="translate(181.000000, 6.000000)">
                    <mask id="mask-14" fill="white">
                        <use xlink:href="#path-13"></use>
                    </mask>
                    <g id="Clip-20"></g>
                    <polygon id="Fill-19" fill="#1665C0" mask="url(#mask-14)" points="-0.04 42.1 15.08 42.1 15.08 -0.02 -0.04 -0.02"></polygon>
                </g>
                <g id="Group-24" transform="translate(269.000000, 14.000000)">
                    <mask id="mask-16" fill="white">
                        <use xlink:href="#path-15"></use>
                    </mask>
                    <g id="Clip-23"></g>
                    <polygon id="Fill-22" fill="#1665C0" mask="url(#mask-16)" points="-0.08 35.06 34 35.06 34 -0.1 -0.08 -0.1"></polygon>
                </g>
                <g id="Group-27" transform="translate(374.000000, 14.000000)">
                    <mask id="mask-18" fill="white">
                        <use xlink:href="#path-17"></use>
                    </mask>
                    <g id="Clip-26"></g>
                    <polygon id="Fill-25" fill="#1665C0" mask="url(#mask-18)" points="-0.08 35.06 34 35.06 34 -0.1 -0.08 -0.1"></polygon>
                </g>
                <g id="Group-30" transform="translate(341.000000, 14.000000)">
                    <mask id="mask-20" fill="white">
                        <use xlink:href="#path-19"></use>
                    </mask>
                    <g id="Clip-29"></g>
                    <polygon id="Fill-28" fill="#1665C0" mask="url(#mask-20)" points="-0.08 35.06 32.08 35.06 32.08 -0.1 -0.08 -0.1"></polygon>
                </g>
                <g id="Group-33" transform="translate(309.000000, 14.000000)">
                    <mask id="mask-22" fill="white">
                        <use xlink:href="#path-21"></use>
                    </mask>
                    <g id="Clip-32"></g>
                    <polygon id="Fill-31" fill="#1665C0" mask="url(#mask-22)" points="0 34.1 28.08 34.1 28.08 -0.1 0 -0.1"></polygon>
                </g>
                <g id="Group-36" transform="translate(237.000000, 14.000000)">
                    <mask id="mask-24" fill="white">
                        <use xlink:href="#path-23"></use>
                    </mask>
                    <g id="Clip-35"></g>
                    <polygon id="Fill-34" fill="#1665C0" mask="url(#mask-24)" points="0 34.1 28.08 34.1 28.08 -0.1 0 -0.1"></polygon>
                </g>
                <g id="Group-39" transform="translate(203.000000, 0.000000)">
                    <mask id="mask-26" fill="white">
                        <use xlink:href="#path-25"></use>
                    </mask>
                    <g id="Clip-38"></g>
                    <polygon id="Fill-37" fill="#1665C0" mask="url(#mask-26)" points="-0.08 48.1 28 48.1 28 -0.02 -0.08 -0.02"></polygon>
                </g>
                <polygon id="Fill-40" fill="#1665C0" points="225 10 230 10 230 3 225 3"></polygon>
            </g>
        </g>
    </g>
</svg>